<?xml version="1.0" encoding="UTF-8"?>
<svg xmlns="http://www.w3.org/2000/svg" xmlns:xlink="http://www.w3.org/1999/xlink" width="456" height="456" viewBox="-68 -68 456 456" version="1.1">
<g id="surface1">
<path style=" stroke:none;fill-rule:nonzero;fill:rgb(90.980392%,93.72549%,96.078431%);fill-opacity:1;" d="M 166.097656 34.164062 C 167.835938 34.167969 169.574219 34.164062 171.308594 34.15625 C 179.976562 34.148438 188.523438 34.601562 196.933594 36.953125 L 198.96875 37.570312 L 200.171875 37.925781 C 209.207031 40.621094 218.054688 44.402344 226.164062 49.316406 C 228.199219 50.660156 230.070312 52.171875 231.921875 53.765625 L 233.746094 55.265625 C 235.472656 56.695312 237.1875 58.140625 238.890625 59.59375 C 239.496094 60.070312 240.097656 60.539062 240.722656 61.027344 C 243.269531 63.210938 245.171875 65.894531 247.128906 68.625 L 248.3125 70.269531 C 250.996094 74.105469 253.046875 77.8125 254.722656 82.21875 C 256.523438 87.796875 256.523438 87.796875 256.871094 90.769531 L 256.910156 92.632812 L 256.988281 94.535156 L 256.632812 95.871094 L 255.230469 95.910156 L 253.464844 95.222656 C 252.390625 94.382812 251.332031 93.519531 250.296875 92.632812 C 245.988281 89.738281 241.320312 87.019531 236.4375 85.304688 C 227.867188 82.925781 218.550781 81.355469 209.664062 81.457031 C 208.421875 81.496094 207.183594 81.542969 205.941406 81.621094 L 207.28125 82.214844 L 209.03125 83.039062 L 210.765625 83.832031 L 212.277344 84.859375 C 212.984375 86.28125 212.984375 86.28125 213.542969 88.097656 C 213.710938 89.472656 213.828125 90.855469 213.902344 92.238281 L 214.042969 94.601562 C 214.132812 96.242188 214.222656 97.882812 214.3125 99.527344 L 214.453125 101.875 L 214.574219 104.03125 L 214.8125 105.585938 L 216.078125 105.585938 L 216.617188 106.773438 L 217.347656 108.175781 C 218.644531 109.160156 218.644531 109.160156 220.160156 109.921875 L 221.660156 110.738281 C 223.105469 111.480469 223.105469 111.480469 224.949219 112.0625 C 227.566406 112.203125 229.84375 112.089844 232.4375 111.699219 C 234.738281 111.042969 236.652344 109.929688 238.691406 108.664062 C 240.300781 107.570312 241.777344 106.515625 243.164062 105.140625 C 244.398438 103.644531 245.433594 102.035156 246.492188 100.40625 C 248.359375 100 248.359375 100 249.542969 100.050781 C 250.933594 100.40625 250.933594 100.40625 252.613281 101.285156 C 256.097656 103.5 259.382812 105.910156 262.335938 108.828125 C 263.707031 110.449219 264.949219 112.148438 266.179688 113.886719 L 267.183594 115.273438 C 268.871094 117.625 270.480469 120 272 122.46875 C 272.875 123.847656 273.699219 124.976562 274.847656 126.125 C 275.683594 126.859375 276.527344 127.589844 277.375 128.3125 C 281.402344 131.796875 285.121094 135.496094 288.140625 139.921875 C 290.414062 143.441406 292.097656 146.964844 293.386719 150.972656 C 294.660156 155.207031 295.390625 159.078125 295.503906 163.496094 C 295.554688 168.3125 295.527344 172.890625 294.28125 177.5625 C 293.625 179.730469 292.894531 181.84375 292.117188 183.96875 L 291.410156 185.972656 C 290.410156 188.675781 289.367188 191.339844 287.683594 193.683594 L 286.414062 193.683594 L 286.414062 194.980469 L 285.148438 194.980469 C 285.03125 193.40625 284.976562 191.863281 284.949219 190.285156 C 284.847656 187.476562 284.632812 185.007812 283.816406 182.3125 C 283.039062 180.464844 282.21875 178.644531 281.347656 176.84375 L 280.691406 175.007812 L 280.078125 173.601562 L 278.8125 173.601562 L 277.742188 172.105469 L 276.277344 170.363281 C 275.132812 169.738281 275.132812 169.738281 273.902344 169.269531 L 271.84375 168.421875 L 271.84375 167.125 C 270.429688 166.59375 270.429688 166.59375 268.671875 166.195312 C 266.433594 165.617188 264.285156 165.003906 262.136719 164.128906 C 259.984375 163.308594 258.269531 162.890625 256 162.589844 C 249 162.160156 242.089844 162.429688 235.214844 163.886719 C 231.386719 164.777344 227.632812 165.933594 223.882812 167.132812 L 221.78125 167.773438 L 220.515625 167.773438 L 220.515625 169.066406 L 216.714844 169.71875 L 216.714844 171.011719 C 215.394531 171.988281 215.394531 171.988281 213.664062 173.039062 L 211.949219 174.09375 L 210.375 174.898438 L 208.476562 174.898438 L 207.921875 176.113281 L 207.207031 177.488281 L 204.039062 178.785156 L 203.46875 179.976562 L 202.769531 181.375 C 201.5625 182.550781 201.5625 182.550781 200.199219 183.683594 C 198.84375 184.78125 198.84375 184.78125 197.703125 185.910156 L 197.070312 187.855469 L 195.804688 187.855469 C 195.121094 189.023438 195.121094 189.023438 194.535156 190.445312 L 193.957031 191.660156 C 189.882812 200.066406 189.882812 200.066406 187.214844 209.011719 C 186.375 215.417969 186.558594 222.175781 187.386719 228.578125 C 188.429688 235.382812 190.527344 241.816406 193.265625 248.097656 C 194.589844 250.8125 196.0625 253.34375 197.703125 255.871094 L 198.390625 256.9375 C 200.847656 260.722656 203.359375 264.410156 206.332031 267.789062 C 207.292969 268.925781 208.136719 270.113281 208.992188 271.335938 C 211.25 274.46875 213.902344 277.214844 216.714844 279.839844 L 217.980469 280.484375 L 217.980469 281.78125 C 218.820312 282.226562 219.664062 282.652344 220.515625 283.074219 C 222.257812 284.371094 222.257812 284.371094 223.683594 285.667969 L 223.683594 286.960938 L 225.582031 287.613281 L 227.484375 288.257812 L 227.484375 289.554688 C 228.320312 290.003906 229.167969 290.433594 230.019531 290.851562 C 231.113281 291.644531 232.195312 292.453125 233.265625 293.277344 C 238.136719 296.933594 243.113281 299.929688 248.625 302.457031 L 249.664062 303.15625 L 248.394531 304.453125 C 247.0625 304.769531 247.0625 304.769531 245.425781 304.980469 C 244.839844 305.0625 244.25 305.144531 243.648438 305.226562 L 241.78125 305.464844 C 240.566406 305.628906 239.351562 305.789062 238.140625 305.953125 L 236.503906 306.164062 C 234.984375 306.375 234.984375 306.375 233.1875 307.046875 C 221.222656 308.9375 207.519531 308.757812 195.511719 307.414062 C 190.675781 306.730469 185.949219 305.703125 181.226562 304.453125 L 179.773438 304.085938 C 175.675781 303.046875 171.667969 301.675781 167.785156 299.984375 C 166.007812 299.265625 164.203125 298.667969 162.386719 298.066406 C 154.390625 295.375 147.09375 291.320312 140.066406 286.609375 C 135.050781 283.121094 130.273438 279.160156 126.097656 274.65625 L 126.097656 273.359375 L 124.832031 273.359375 C 120.9375 269.609375 117.851562 264.796875 114.691406 260.40625 C 116.628906 265.421875 118.808594 270.234375 121.234375 275.023438 C 122.246094 277.046875 123.082031 278.914062 123.5625 281.136719 C 117.210938 278.496094 111.292969 275.738281 105.824219 271.417969 C 102.28125 268.339844 98.953125 265.074219 95.683594 261.699219 L 94.488281 260.472656 C 89.910156 255.488281 86.410156 249.648438 83.304688 243.617188 C 82.511719 241.890625 81.796875 240.152344 81.109375 238.378906 L 80.167969 236.097656 C 77.269531 228.863281 75.488281 221.367188 74.609375 213.601562 C 74.371094 211.070312 74.242188 208.535156 74.140625 205.992188 C 73.742188 212.835938 73.460938 219.660156 73.414062 226.515625 L 73.378906 230.3125 C 73.359375 232.253906 73.347656 234.191406 73.347656 236.128906 C 73.339844 238.039062 73.324219 239.949219 73.296875 241.859375 L 73.3125 243.65625 C 73.277344 245.261719 73.277344 245.261719 72.871094 247.449219 L 71.347656 246.925781 C 69.597656 245.414062 68.351562 243.921875 67.007812 242.023438 L 66.273438 240.988281 C 65.765625 240.265625 65.261719 239.542969 64.757812 238.820312 C 64.027344 237.777344 63.289062 236.742188 62.542969 235.710938 C 56.667969 227.394531 52.636719 218.242188 49.226562 208.621094 C 48.527344 206.480469 48.011719 204.304688 47.523438 202.105469 L 46.984375 199.757812 C 45.480469 192.167969 45.074219 184.601562 45.445312 176.863281 C 45.878906 172.144531 47.238281 167.683594 48.792969 163.238281 L 48.15625 163.886719 C 47.554688 165.097656 46.957031 166.308594 46.367188 167.523438 C 45.859375 168.582031 45.339844 169.640625 44.820312 170.695312 L 44 172.347656 L 43.246094 173.867188 C 38.414062 184.132812 34.394531 195.390625 32.515625 206.640625 L 32.308594 208.015625 C 32.140625 209.078125 31.917969 210.128906 31.683594 211.171875 L 30.417969 211.171875 C 29.644531 209.636719 28.929688 208.070312 28.277344 206.476562 L 27.679688 205.03125 C 27.105469 203.628906 26.539062 202.21875 25.980469 200.808594 L 25.191406 198.867188 C 23.167969 193.332031 22.257812 187.503906 21.695312 181.644531 C 21.390625 177.160156 21.355469 172.671875 21.347656 168.175781 L 21.339844 166.777344 C 21.316406 158.3125 21.988281 150.007812 24.140625 141.796875 C 25.15625 138.46875 26.464844 135.308594 27.882812 132.144531 L 28.730469 130.226562 C 31.714844 123.800781 35.507812 118.035156 40.078125 112.691406 C 44.046875 108.207031 48.410156 104.542969 53.226562 101.050781 L 54.769531 99.925781 C 58.324219 97.421875 62.082031 95.328125 65.902344 93.277344 L 67.246094 92.550781 C 70.511719 90.832031 73.882812 89.445312 77.308594 88.097656 C 71.664062 89.617188 66.292969 91.84375 60.878906 94.042969 C 59.742188 94.503906 58.605469 94.953125 57.464844 95.398438 L 55.761719 96.074219 L 54.335938 96.632812 L 53.226562 97.164062 L 51.960938 98.460938 C 51.058594 98.835938 50.148438 99.1875 49.226562 99.515625 C 43.296875 101.863281 38.035156 105.703125 32.828125 109.390625 C 31.683594 110.121094 31.683594 110.121094 29.785156 110.769531 C 33.9375 102.210938 39.058594 94.820312 44.988281 87.449219 L 46.050781 86.097656 C 48.636719 82.910156 51.566406 80.402344 54.734375 77.835938 C 56.097656 76.691406 57.378906 75.453125 58.574219 74.132812 C 61.421875 71.109375 64.90625 68.828125 68.433594 66.722656 L 69.703125 66.722656 L 69.703125 65.425781 C 71.109375 64.507812 72.550781 63.644531 74.019531 62.835938 L 75.375 62.070312 C 79.5 59.753906 83.664062 57.515625 87.835938 55.296875 C 90.289062 53.992188 92.683594 52.640625 95.050781 51.171875 C 97.308594 50.082031 97.308594 50.082031 99.484375 49.230469 L 102.019531 49.230469 L 102.019531 47.9375 C 103.566406 47.265625 105.140625 46.65625 106.734375 46.113281 L 108.214844 45.59375 C 120.445312 41.371094 133.035156 37.972656 145.742188 35.628906 L 147.640625 35.265625 C 153.800781 34.222656 159.867188 34.132812 166.097656 34.164062 Z M 166.097656 34.164062 "/>
</g>
</svg>
