<?xml version="1.0" encoding="UTF-8"?>
<svg xmlns="http://www.w3.org/2000/svg" xmlns:xlink="http://www.w3.org/1999/xlink" width="456" height="456" viewBox="0 0 456 456" version="1.1">
<g id="surface1">
<path style=" stroke:none;fill-rule:nonzero;fill:rgb(10.588235%,52.941176%,92.156863%);fill-opacity:1;" d="M 121.816406 -0.128906 L 124.699219 -0.136719 C 127.863281 -0.144531 131.027344 -0.148438 134.191406 -0.148438 L 141.023438 -0.164062 C 147.195312 -0.175781 153.371094 -0.179688 159.542969 -0.183594 C 163.40625 -0.1875 167.269531 -0.191406 171.132812 -0.195312 C 181.855469 -0.207031 192.578125 -0.214844 203.300781 -0.21875 L 207.453125 -0.21875 L 211.625 -0.222656 L 213.71875 -0.222656 C 224.878906 -0.226562 236.039062 -0.242188 247.199219 -0.265625 C 258.691406 -0.285156 270.179688 -0.296875 281.671875 -0.296875 C 288.109375 -0.296875 294.550781 -0.304688 300.988281 -0.320312 C 307.050781 -0.335938 313.113281 -0.335938 319.179688 -0.332031 C 321.390625 -0.328125 323.605469 -0.332031 325.816406 -0.34375 C 342.347656 -0.40625 357.828125 1.101562 373.84375 5.363281 C 383.75 8.375 393.664062 12.246094 402.539062 17.71875 C 409.542969 22.492188 415.644531 28.195312 421.6875 34.152344 L 423.546875 35.910156 C 427.847656 40.074219 431.097656 44.789062 434.328125 49.847656 L 436.109375 52.585938 C 441.976562 61.921875 446.535156 71.792969 449.792969 82.382812 C 450.199219 84.066406 450.605469 85.746094 450.992188 87.433594 C 451.328125 88.863281 451.675781 90.289062 452.035156 91.714844 C 457.761719 115.046875 456.648438 139.105469 456.578125 162.972656 C 456.566406 166.664062 456.566406 170.351562 456.570312 174.042969 L 456.570312 175.914062 C 456.570312 177.171875 456.574219 178.429688 456.574219 179.683594 C 456.582031 190.71875 456.566406 201.753906 456.539062 212.792969 C 456.511719 223.4375 456.507812 234.085938 456.519531 244.734375 C 456.539062 257.65625 456.539062 270.578125 456.519531 283.5 L 456.515625 285.359375 C 456.511719 289.640625 456.515625 293.921875 456.519531 298.199219 C 456.527344 303.984375 456.515625 309.765625 456.492188 315.546875 C 456.484375 317.648438 456.484375 319.753906 456.492188 321.855469 C 456.53125 335.871094 455.171875 349.046875 452.386719 362.769531 L 451.964844 364.925781 C 449.933594 375.191406 446.347656 384.480469 441.769531 393.828125 C 436.265625 404.511719 428.882812 414.015625 420.785156 422.769531 C 415.523438 428.292969 409.902344 433.023438 403.441406 437 C 391.976562 443.640625 380.199219 448.289062 367.410156 451.476562 L 364.914062 452.078125 L 362.660156 452.632812 C 347.40625 456.105469 331.910156 456.269531 316.363281 456.238281 L 310.105469 456.25 C 304.492188 456.257812 298.875 456.253906 293.257812 456.25 C 287.347656 456.242188 281.433594 456.25 275.523438 456.25 C 264.960938 456.253906 254.398438 456.25 243.835938 456.238281 C 234.308594 456.230469 224.777344 456.234375 215.246094 456.242188 C 204.125 456.25 193 456.253906 181.878906 456.25 C 176.007812 456.246094 170.144531 456.246094 164.277344 456.253906 C 158.753906 456.257812 153.230469 456.253906 147.707031 456.242188 C 145.695312 456.238281 143.6875 456.242188 141.675781 456.246094 C 124.269531 456.277344 106.691406 455.816406 89.675781 451.730469 L 86.597656 451.003906 C 75.722656 448.316406 65.464844 444.597656 55.65625 439.0625 C 47.632812 434.296875 40.820312 428.574219 34.3125 421.847656 L 31.957031 419.464844 C 24.589844 411.65625 19.226562 402.703125 14.269531 393.167969 C 9.285156 383.164062 6.246094 372.71875 3.613281 361.847656 L 3.136719 359.921875 C 1.535156 353.289062 0.714844 346.808594 0.390625 340.007812 L 0.277344 337.703125 C -0.117188 328.878906 -0.128906 320.058594 -0.117188 311.230469 L -0.121094 305.664062 C -0.125 300.675781 -0.125 295.6875 -0.121094 290.699219 C -0.121094 285.433594 -0.121094 280.164062 -0.121094 274.898438 C -0.125 266.042969 -0.121094 257.191406 -0.117188 248.335938 C -0.113281 238.179688 -0.113281 228.023438 -0.121094 217.867188 C -0.125 209.082031 -0.125 200.292969 -0.121094 191.507812 C -0.121094 186.289062 -0.121094 181.070312 -0.121094 175.855469 C -0.140625 138.726562 -0.140625 138.726562 0.257812 122.683594 C 0.300781 120.929688 0.335938 119.171875 0.371094 117.417969 C 0.730469 105.625 3.257812 94.410156 6.320312 83.078125 L 6.855469 80.964844 C 9.222656 71.722656 13.433594 63.433594 18.097656 55.207031 C 23.738281 45.625 30.757812 37.046875 38.699219 29.363281 C 45.332031 23.183594 52.460938 18.261719 60.492188 14.175781 C 73.441406 7.847656 86.503906 3.792969 100.636719 1.296875 C 107.6875 0.15625 114.6875 -0.136719 121.816406 -0.128906 Z M 121.816406 -0.128906 "/>
</g>
</svg>
